<svg width="375" height="530" viewBox="0 0 375 530" fill="none" xmlns="http://www.w3.org/2000/svg">
<path d="M21.0641 59.7101V58.6543H19.9989V59.7101H21.0641ZM24.7624 59.7101H25.8276V58.6543H24.7624V59.7101ZM24.7624 89.0371V90.0929H25.8276V89.0371H24.7624ZM21.0641 89.0371H19.9989V90.0929H21.0641V89.0371ZM69.1457 103.701V102.645H68.0805V103.701H69.1457ZM72.844 118.364V119.42H73.9092V118.364H72.844ZM69.1457 118.364H68.0805V119.42H69.1457V118.364ZM72.844 89.0371V87.9814H71.7788V89.0371H72.844ZM76.5423 89.0371H77.6075V87.9814H76.5423V89.0371ZM80.2407 118.364V119.42H81.3058V118.364H80.2407ZM76.5423 118.364H75.4771V119.42H76.5423V118.364ZM80.2407 89.0371V87.9814H79.1755V89.0371H80.2407ZM83.9401 89.0371H85.0052V87.9814H83.9401V89.0371ZM87.6384 118.364V119.42H88.7036V118.364H87.6384ZM83.9401 118.364H82.8749V119.42H83.9401V118.364ZM87.6384 89.0371V87.9814H86.5732V89.0371H87.6384ZM91.3367 89.0371H92.4019V87.9814H91.3367V89.0371ZM95.0351 118.364V119.42H96.1003V118.364H95.0351ZM91.3367 118.364H90.2715V119.42H91.3367V118.364ZM102.433 118.364V119.42H103.498V118.364H102.433ZM98.7345 118.364H97.6693V119.42H98.7345V118.364ZM120.926 147.692V146.636H119.86V147.692H120.926ZM124.624 147.692H125.689V146.636H124.624V147.692ZM124.624 206.345V207.401H125.689V206.345H124.624ZM120.926 206.345H119.86V207.401H120.926V206.345ZM132.022 206.345H130.956V207.401H132.022V206.345ZM135.72 206.345V207.401H136.785V206.345H135.72ZM135.72 177.019H136.785V175.963H135.72V177.019ZM132.022 177.019V175.963H130.956V177.019H132.022ZM150.514 103.701V102.645H149.449V103.701H150.514ZM154.213 118.364V119.42H155.278V118.364H154.213ZM150.514 118.364H149.449V119.42H150.514V118.364ZM2.57138 1.05578V0L0 0L1.81827 1.80233L2.57138 1.05578ZM76.5423 1.05578L77.2954 0.30923L76.9833 0L76.5423 0V1.05578ZM165.309 89.0371L166.062 89.7837L166.815 89.0371L166.062 88.2906L165.309 89.0371ZM157.911 96.369L157.158 95.6225L156.846 95.9317V96.369H157.911ZM157.911 103.701V104.757H158.976V103.701H157.911ZM154.213 100.035H155.278V97.486L153.46 99.2883L154.213 100.035ZM146.815 107.366L146.062 106.62L145.75 106.929V107.366H146.815ZM146.815 118.364V119.42H147.88V118.364H146.815ZM143.117 118.364H142.051V119.42H143.117V118.364ZM143.117 111.033H144.182V108.483L142.364 110.286L143.117 111.033ZM139.418 114.699L138.665 113.952L138.353 114.261V114.699H139.418ZM139.418 118.364V119.42H140.484V118.364H139.418ZM135.72 118.364V117.308H135.279L134.967 117.618L135.72 118.364ZM128.322 125.697L127.569 126.443L128.322 127.189L129.075 126.443L128.322 125.697ZM117.227 114.699L117.98 113.952L116.162 112.15V114.699H117.227ZM117.227 118.364V119.42H118.292V118.364H117.227ZM113.528 118.364H112.463V119.42H113.528V118.364ZM113.528 111.033H114.593V110.595L114.282 110.286L113.528 111.033ZM109.829 107.366L110.583 106.62L108.764 104.818V107.366H109.829ZM109.829 118.364V119.42H110.895V118.364H109.829ZM106.131 118.364H105.066V119.42H106.131V118.364ZM106.131 103.701H107.196V102.645H106.131V103.701ZM102.433 100.035H103.498V99.5976L103.186 99.2883L102.433 100.035ZM98.7345 96.369L99.4876 95.6225L97.6693 93.8201V96.369H98.7345ZM95.0351 92.7031H96.1003V92.2657L95.7882 91.9565L95.0351 92.7031ZM35.8585 34.0488L36.6116 33.3023L34.7933 31.4999V34.0488H35.8585ZM35.8585 89.0371V90.0929H36.9237V89.0371H35.8585ZM32.1602 89.0371H31.095V90.0929H32.1602V89.0371ZM32.1602 30.3829H33.2253V29.9456L32.9133 29.6364L32.1602 30.3829ZM24.7624 23.0511L25.5155 22.3046L23.6972 20.5022V23.0511H24.7624ZM24.7624 30.3829V31.4387H25.8276V30.3829H24.7624ZM21.0641 30.3829H19.9989V31.4387H21.0641V30.3829ZM21.0641 19.3852H22.1293V18.9479L21.8172 18.6387L21.0641 19.3852ZM172.705 30.3829V29.3272L171.64 29.3272V30.3829L172.705 30.3829ZM180.102 30.3829H181.167V29.3272H180.102V30.3829ZM180.102 59.7101V60.7659H181.167V59.7101H180.102ZM172.705 59.7101H171.64V60.7659H172.705V59.7101ZM202.294 30.3829V29.3272H201.229V30.3829H202.294ZM209.691 30.3829H210.756V29.3272H209.691V30.3829ZM209.691 89.0371V90.0929H210.756V89.0371H209.691ZM202.294 89.0371H201.229V90.0929H202.294V89.0371ZM231.883 30.3829V29.3272H230.818V30.3829H231.883ZM239.28 30.3829H240.345V29.3272H239.28V30.3829ZM239.28 59.7101V60.7659H240.345V59.7101H239.28ZM231.883 59.7101H230.818V60.7659H231.883V59.7101ZM305.854 103.701V102.645H304.789V103.701H305.854ZM309.553 118.364V119.42H310.618V118.364H309.553ZM305.854 118.364H304.789V119.42H305.854V118.364ZM309.553 89.0371V87.9814H308.487V89.0371H309.553ZM313.251 89.0371H314.316V87.9814H313.251V89.0371ZM316.95 118.364V119.42H318.015V118.364H316.95ZM313.251 118.364H312.186V119.42H313.251V118.364ZM316.95 89.0371V87.9814H315.885V89.0371H316.95ZM320.648 89.0371H321.714V87.9814H320.648V89.0371ZM324.347 118.364V119.42H325.412V118.364H324.347ZM320.648 118.364H319.583V119.42H320.648V118.364ZM324.347 89.0371V87.9814H323.282V89.0371H324.347ZM328.045 89.0371H329.111V87.9814H328.045V89.0371ZM331.744 118.364V119.42H332.809V118.364H331.744ZM328.045 118.364H326.98V119.42H328.045V118.364ZM331.744 89.0371V87.9814H330.679V89.0371H331.744ZM335.443 89.0371H336.508V87.9814H335.443V89.0371ZM335.443 103.701V104.757H336.508V103.701H335.443ZM128.322 169.687L127.569 168.94L127.257 169.249V169.687H128.322ZM298.457 1.05578V0L298.016 0L297.704 0.30923L298.457 1.05578ZM372.428 1.05578L373.182 1.80233L375 0L372.428 0V1.05578ZM128.322 243.005H127.257V245.554L129.075 243.751L128.322 243.005ZM83.9401 382.308V381.253H82.8749V382.308H83.9401ZM91.3367 382.308H92.4019V381.253H91.3367V382.308ZM91.3367 440.963V442.019H92.4019V440.963H91.3367ZM83.9401 440.963H82.8749V442.019H83.9401V440.963ZM113.528 382.308V381.253H112.463V382.308H113.528ZM120.926 382.308H121.991V381.253H120.926V382.308ZM120.926 411.636V412.692H121.991V411.636H120.926ZM113.528 411.636H112.463V412.692H113.528V411.636ZM187.5 418.967V417.911H186.435V418.967H187.5ZM187.5 426.299H186.435V427.355H187.5V426.299ZM187.5 433.631V432.575H186.435V433.631H187.5ZM194.897 440.963V442.019H195.962V440.963H194.897ZM187.5 440.963H186.435V442.019H187.5V440.963ZM194.897 411.636V410.58H193.831V411.636H194.897ZM202.294 411.636H203.359V410.58H202.294V411.636ZM202.294 440.963H201.229V442.019H202.294V440.963ZM209.691 411.636V410.58H208.626V411.636H209.691ZM217.089 418.967V420.023H218.154V418.967H217.089ZM217.089 426.299H218.154V425.244H217.089V426.299ZM217.089 433.631V434.687H218.154V433.631H217.089ZM217.089 389.641V388.585H216.024V389.641H217.089ZM217.089 396.972H216.024V398.028H217.089V396.972ZM217.089 404.303V403.248H216.024V404.303H217.089ZM224.485 411.636V412.692H225.551V411.636H224.485ZM224.485 382.308V381.253H223.42V382.308H224.485ZM231.883 382.308H232.948V381.253H231.883V382.308ZM239.28 411.636V412.692H240.345V411.636H239.28ZM231.883 411.636H230.818V412.692H231.883V411.636ZM236.506 352.981H235.441V354.037H236.506V352.981ZM241.591 352.981V354.037H242.656V352.981H241.591ZM241.591 323.655H242.656V322.599H241.591V323.655ZM236.506 323.655V322.599H235.441V323.655H236.506ZM2.57138 528.944L1.81827 528.198L0 530H2.57138V528.944ZM246.676 286.995H247.742V284.446L245.923 286.249L246.676 286.995ZM246.676 360.313L247.431 361.06L247.742 360.751V360.313H246.676ZM76.5423 528.944V530H76.9833L77.2954 529.691L76.5423 528.944ZM65.4473 528.944H64.3821V530H65.4473V528.944ZM65.4473 499.617H66.5125V498.561H65.4473V499.617ZM61.7479 499.617V498.561H60.6828V499.617H61.7479ZM61.7479 528.944V530H62.8131V528.944H61.7479ZM239.28 382.308V381.253H238.215V382.308H239.28ZM246.676 382.308H247.742V381.253H246.676V382.308ZM246.676 389.641V390.697H247.742V389.641H246.676ZM246.676 396.972H247.742V395.916H246.676V396.972ZM250.376 323.655V322.599H249.311V323.655H250.376ZM254.074 323.655H255.139V322.599H254.074V323.655ZM254.074 382.308V383.364H255.139V382.308H254.074ZM250.376 382.308H249.311V383.364H250.376V382.308ZM339.141 294.327V293.272H338.076V294.327H339.141ZM342.84 294.327H343.905V293.272H342.84V294.327ZM342.84 352.981V354.037H343.905V352.981H342.84ZM339.141 352.981H338.076V354.037H339.141V352.981ZM339.141 382.308V381.253H338.076V382.308H339.141ZM342.84 382.308H343.905V381.253H342.84V382.308ZM342.84 411.636V412.692H343.905V411.636H342.84ZM339.141 411.636H338.076V412.692H339.141V411.636ZM372.428 528.944V530H375L373.182 528.198L372.428 528.944ZM298.457 528.944L297.704 529.691L298.016 530H298.457V528.944ZM21.0641 60.7659H24.7624V58.6543H21.0641V60.7659ZM23.6972 59.7101V89.0371H25.8276V59.7101H23.6972ZM24.7624 87.9814H21.0641V90.0929H24.7624V87.9814ZM22.1293 89.0371V59.7101H19.9989V89.0371H22.1293ZM69.1457 104.757H72.844V102.645H69.1457V104.757ZM71.7788 103.701V118.364H73.9092V103.701H71.7788ZM72.844 117.308H69.1457V119.42H72.844V117.308ZM70.2109 118.364V103.701H68.0805V118.364H70.2109ZM72.844 90.0929H76.5423V87.9814H72.844V90.0929ZM75.4771 89.0371V103.701H77.6075V89.0371H75.4771ZM76.5423 102.645H72.844V104.757H76.5423V102.645ZM73.9092 103.701V89.0371H71.7788V103.701H73.9092ZM76.5423 104.757H80.2407V102.645H76.5423V104.757ZM79.1755 103.701V118.364H81.3058V103.701H79.1755ZM80.2407 117.308H76.5423V119.42H80.2407V117.308ZM77.6075 118.364V103.701H75.4771V118.364H77.6075ZM80.2407 90.0929H83.9401V87.9814H80.2407V90.0929ZM82.8749 89.0371V103.701H85.0052V89.0371H82.8749ZM83.9401 102.645H80.2407V104.757H83.9401V102.645ZM81.3058 103.701V89.0371H79.1755V103.701H81.3058ZM83.9401 104.757H87.6384V102.645H83.9401V104.757ZM86.5732 103.701V118.364H88.7036V103.701H86.5732ZM87.6384 117.308H83.9401V119.42H87.6384V117.308ZM85.0052 118.364V103.701H82.8749V118.364H85.0052ZM87.6384 90.0929H91.3367V87.9814H87.6384V90.0929ZM90.2715 89.0371V103.701H92.4019V89.0371H90.2715ZM91.3367 102.645H87.6384V104.757H91.3367V102.645ZM88.7036 103.701V89.0371H86.5732V103.701H88.7036ZM91.3367 104.757H95.0351V102.645H91.3367V104.757ZM93.9699 103.701V118.364H96.1003V103.701H93.9699ZM95.0351 117.308H91.3367V119.42H95.0351V117.308ZM92.4019 118.364V103.701H90.2715V118.364H92.4019ZM98.7345 104.757H102.433V102.645H98.7345V104.757ZM101.368 103.701V118.364H103.498V103.701H101.368ZM102.433 117.308H98.7345V119.42H102.433V117.308ZM99.7997 118.364V103.701H97.6693V118.364H99.7997ZM120.926 148.747H124.624V146.636H120.926V148.747ZM123.559 147.692V206.345H125.689V147.692H123.559ZM124.624 205.289H120.926V207.401H124.624V205.289ZM121.991 206.345V147.692H119.86V206.345H121.991ZM132.022 207.401H135.72V205.289H132.022V207.401ZM136.785 206.345V177.019H134.655V206.345H136.785ZM135.72 175.963H132.022V178.075H135.72V175.963ZM130.956 177.019V206.345H133.087V177.019H130.956ZM150.514 104.757H154.213V102.645H150.514V104.757ZM153.148 103.701V118.364H155.278V103.701H153.148ZM154.213 117.308H150.514V119.42H154.213V117.308ZM151.58 118.364V103.701H149.449V118.364H151.58ZM2.57138 2.11155L76.5423 2.11155V0L2.57138 0V2.11155ZM75.7893 1.80233L164.555 89.7837L166.062 88.2906L77.2954 0.30923L75.7893 1.80233ZM164.555 88.2906L157.158 95.6225L158.664 97.1155L166.062 89.7837L164.555 88.2906ZM156.846 96.369V103.701H158.976V96.369H156.846ZM157.911 102.645H154.213V104.757H157.911V102.645ZM155.278 103.701V100.035H153.148V103.701H155.278ZM153.46 99.2883L146.062 106.62L147.569 108.114L154.966 100.781L153.46 99.2883ZM145.75 107.366V118.364H147.88V107.366H145.75ZM146.815 117.308H143.117V119.42H146.815V117.308ZM144.182 118.364V111.033H142.051V118.364H144.182ZM142.364 110.286L138.665 113.952L140.171 115.445L143.87 111.779L142.364 110.286ZM138.353 114.699V118.364H140.484V114.699H138.353ZM139.418 117.308H135.72V119.42H139.418V117.308ZM134.967 117.618L127.569 124.949L129.075 126.443L136.473 119.111L134.967 117.618ZM129.075 124.949L117.98 113.952L116.474 115.445L127.569 126.443L129.075 124.949ZM116.162 114.699V118.364H118.292V114.699H116.162ZM117.227 117.308H113.528V119.42H117.227V117.308ZM114.593 118.364V111.033H112.463V118.364H114.593ZM114.282 110.286L110.583 106.62L109.076 108.114L112.775 111.779L114.282 110.286ZM108.764 107.366V118.364H110.895V107.366H108.764ZM109.829 117.308H106.131V119.42H109.829V117.308ZM107.196 118.364V103.701H105.066V118.364H107.196ZM106.131 102.645H102.433V104.757H106.131V102.645ZM103.498 103.701V100.035H101.368V103.701H103.498ZM103.186 99.2883L99.4876 95.6225L97.9803 97.1155L101.68 100.781L103.186 99.2883ZM97.6693 96.369V103.701H99.7997V96.369H97.6693ZM98.7345 102.645H95.0351V104.757H98.7345V102.645ZM96.1003 103.701V92.7031H93.9699V103.701H96.1003ZM95.7882 91.9565L36.6116 33.3023L35.1054 34.7953L94.282 93.4497L95.7882 91.9565ZM34.7933 34.0488V89.0371H36.9237V34.0488H34.7933ZM35.8585 87.9814H32.1602V90.0929H35.8585V87.9814ZM33.2253 89.0371V30.3829H31.095V89.0371H33.2253ZM32.9133 29.6364L25.5155 22.3046L24.0093 23.7976L31.406 31.1295L32.9133 29.6364ZM23.6972 23.0511V30.3829H25.8276V23.0511H23.6972ZM24.7624 29.3272H21.0641V31.4387H24.7624V29.3272ZM22.1293 30.3829V19.3852H19.9989V30.3829H22.1293ZM21.8172 18.6387L3.3244 0.30923L1.81827 1.80233L20.311 20.1318L21.8172 18.6387ZM172.705 31.4387H180.102V29.3272H172.705V31.4387ZM179.037 30.3829V59.7101H181.167V30.3829H179.037ZM180.102 58.6543H172.705V60.7659H180.102V58.6543ZM173.771 59.7101V30.3829L171.64 30.3829V59.7101H173.771ZM202.294 31.4387H209.691V29.3272H202.294V31.4387ZM208.626 30.3829V89.0371H210.756V30.3829H208.626ZM209.691 87.9814H202.294V90.0929H209.691V87.9814ZM203.359 89.0371V30.3829H201.229V89.0371H203.359ZM231.883 31.4387H239.28V29.3272H231.883V31.4387ZM238.215 30.3829V59.7101H240.345V30.3829H238.215ZM239.28 58.6543H231.883V60.7659H239.28V58.6543ZM232.948 59.7101V30.3829H230.818V59.7101H232.948ZM305.854 104.757H309.553V102.645H305.854V104.757ZM308.487 103.701V118.364H310.618V103.701H308.487ZM309.553 117.308H305.854V119.42H309.553V117.308ZM306.919 118.364V103.701H304.789V118.364H306.919ZM309.553 90.0929H313.251V87.9814H309.553V90.0929ZM312.186 89.0371V103.701H314.316V89.0371H312.186ZM313.251 102.645H309.553V104.757H313.251V102.645ZM310.618 103.701V89.0371H308.487V103.701H310.618ZM313.251 104.757H316.95V102.645H313.251V104.757ZM315.885 103.701V118.364H318.015V103.701H315.885ZM316.95 117.308H313.251V119.42H316.95V117.308ZM314.316 118.364V103.701H312.186V118.364H314.316ZM316.95 90.0929H320.648V87.9814H316.95V90.0929ZM319.583 89.0371V103.701H321.714V89.0371H319.583ZM320.648 102.645H316.95V104.757H320.648V102.645ZM318.015 103.701V89.0371H315.885V103.701H318.015ZM320.648 104.757H324.347V102.645H320.648V104.757ZM323.282 103.701V118.364H325.412V103.701H323.282ZM324.347 117.308H320.648V119.42H324.347V117.308ZM321.714 118.364V103.701H319.583V118.364H321.714ZM324.347 90.0929H328.045V87.9814H324.347V90.0929ZM326.98 89.0371V103.701H329.111V89.0371H326.98ZM328.045 102.645H324.347V104.757H328.045V102.645ZM325.412 103.701V89.0371H323.282V103.701H325.412ZM328.045 104.757H331.744V102.645H328.045V104.757ZM330.679 103.701V118.364H332.809V103.701H330.679ZM331.744 117.308H328.045V119.42H331.744V117.308ZM329.111 118.364V103.701H326.98V118.364H329.111ZM331.744 90.0929H335.443V87.9814H331.744V90.0929ZM334.378 89.0371V103.701H336.508V89.0371H334.378ZM335.443 102.645H331.744V104.757H335.443V102.645ZM332.809 103.701V89.0371H330.679V103.701H332.809ZM129.075 170.433L299.21 1.80233L297.704 0.30923L127.569 168.94L129.075 170.433ZM298.457 2.11155L372.428 2.11155V0L298.457 0V2.11155ZM371.675 0.30923L127.569 242.259L129.075 243.751L373.182 1.80233L371.675 0.30923ZM129.387 243.005L129.387 169.687H127.257L127.257 243.005H129.387ZM83.9401 383.364H91.3367V381.253H83.9401V383.364ZM90.2715 382.308V440.963H92.4019V382.308H90.2715ZM91.3367 439.907H83.9401V442.019H91.3367V439.907ZM85.0052 440.963V382.308H82.8749V440.963H85.0052ZM113.528 383.364H120.926V381.253H113.528V383.364ZM119.86 382.308V411.636H121.991V382.308H119.86ZM120.926 410.58H113.528V412.692H120.926V410.58ZM114.593 411.636V382.308H112.463V411.636H114.593ZM187.5 420.023H194.897V417.911H187.5V420.023ZM193.831 418.967V426.299H195.962V418.967H193.831ZM194.897 425.244H187.5V427.355H194.897V425.244ZM188.565 426.299V418.967H186.435V426.299H188.565ZM187.5 434.687H194.897V432.575H187.5V434.687ZM193.831 433.631V440.963H195.962V433.631H193.831ZM194.897 439.907H187.5V442.019H194.897V439.907ZM188.565 440.963V433.631H186.435V440.963H188.565ZM194.897 412.692H202.294V410.58H194.897V412.692ZM201.229 411.636V418.967H203.359V411.636H201.229ZM202.294 417.911H194.897V420.023H202.294V417.911ZM195.962 418.967V411.636H193.831V418.967H195.962ZM194.897 427.355H202.294V425.244H194.897V427.355ZM201.229 426.299V433.631H203.359V426.299H201.229ZM202.294 432.575H194.897V434.687H202.294V432.575ZM195.962 433.631V426.299H193.831V433.631H195.962ZM202.294 420.023H209.691V417.911H202.294V420.023ZM208.626 418.967V426.299H210.756V418.967H208.626ZM209.691 425.244H202.294V427.355H209.691V425.244ZM203.359 426.299V418.967H201.229V426.299H203.359ZM202.294 434.687H209.691V432.575H202.294V434.687ZM208.626 433.631V440.963H210.756V433.631H208.626ZM209.691 439.907H202.294V442.019H209.691V439.907ZM203.359 440.963V433.631H201.229V440.963H203.359ZM209.691 412.692H217.089V410.58H209.691V412.692ZM216.024 411.636V418.967H218.154V411.636H216.024ZM217.089 417.911H209.691V420.023H217.089V417.911ZM210.756 418.967V411.636H208.626V418.967H210.756ZM209.691 427.355H217.089V425.244H209.691V427.355ZM216.024 426.299V433.631H218.154V426.299H216.024ZM217.089 432.575H209.691V434.687H217.089V432.575ZM210.756 433.631V426.299H208.626V433.631H210.756ZM217.089 390.697H224.485V388.585H217.089V390.697ZM223.42 389.641V396.972H225.551V389.641H223.42ZM224.485 395.916H217.089V398.028H224.485V395.916ZM218.154 396.972V389.641H216.024V396.972H218.154ZM217.089 405.359H224.485V403.248H217.089V405.359ZM223.42 404.303V411.636H225.551V404.303H223.42ZM224.485 410.58H217.089V412.692H224.485V410.58ZM218.154 411.636V404.303H216.024V411.636H218.154ZM224.485 383.364H231.883V381.253H224.485V383.364ZM230.818 382.308V389.641H232.948V382.308H230.818ZM231.883 388.585H224.485V390.697H231.883V388.585ZM225.551 389.641V382.308H223.42V389.641H225.551ZM224.485 398.028H231.883V395.916H224.485V398.028ZM230.818 396.972V404.303H232.948V396.972H230.818ZM231.883 403.248H224.485V405.359H231.883V403.248ZM225.551 404.303V396.972H223.42V404.303H225.551ZM231.883 390.697H239.28V388.585H231.883V390.697ZM238.215 389.641V396.972H240.345V389.641H238.215ZM239.28 395.916H231.883V398.028H239.28V395.916ZM232.948 396.972V389.641H230.818V396.972H232.948ZM231.883 405.359H239.28V403.248H231.883V405.359ZM238.215 404.303V411.636H240.345V404.303H238.215ZM239.28 410.58H231.883V412.692H239.28V410.58ZM232.948 411.636V404.303H230.818V411.636H232.948ZM236.506 354.037H241.591V351.925H236.506V354.037ZM242.656 352.981V323.655H240.526V352.981H242.656ZM241.591 322.599H236.506V324.711H241.591V322.599ZM235.441 323.655V352.981H237.571V323.655H235.441ZM3.3244 529.691L247.431 287.741L245.923 286.249L1.81827 528.198L3.3244 529.691ZM245.611 286.995V360.313H247.742L247.742 286.995H245.611ZM245.923 359.567L75.7893 528.198L77.2954 529.691L247.431 361.06L245.923 359.567ZM76.5423 527.888H65.4473V530H76.5423V527.888ZM66.5125 528.944V499.617H64.3821V528.944H66.5125ZM65.4473 498.561H61.7479V500.673H65.4473V498.561ZM60.6828 499.617V528.944H62.8131V499.617H60.6828ZM61.7479 527.888H2.57138V530H61.7479V527.888ZM239.28 383.364H246.676V381.253H239.28V383.364ZM245.611 382.308V389.641H247.742V382.308H245.611ZM246.676 388.585H239.28V390.697H246.676V388.585ZM240.345 389.641V382.308H238.215V389.641H240.345ZM239.28 398.028H246.676V395.916H239.28V398.028ZM245.611 396.972V404.303H247.742V396.972H245.611ZM246.676 403.248H239.28V405.359H246.676V403.248ZM240.345 404.303V396.972H238.215V404.303H240.345ZM250.376 324.711H254.074V322.599H250.376V324.711ZM253.009 323.655L253.009 382.308H255.139L255.139 323.655H253.009ZM254.074 381.253H250.376V383.364H254.074V381.253ZM251.441 382.308L251.441 323.655H249.311L249.311 382.308H251.441ZM339.141 295.383H342.84V293.272H339.141V295.383ZM341.775 294.327V352.981H343.905V294.327H341.775ZM342.84 351.925H339.141V354.037H342.84V351.925ZM340.206 352.981V294.327H338.076V352.981H340.206ZM339.141 383.364H342.84V381.253H339.141V383.364ZM341.775 382.308V411.636H343.905V382.308H341.775ZM342.84 410.58H339.141V412.692H342.84V410.58ZM340.206 411.636V382.308H338.076V411.636H340.206ZM210.444 441.71L247.431 405.051L245.923 403.557L208.938 440.217L210.444 441.71ZM245.923 405.051L371.675 529.691L373.182 528.198L247.431 403.557L245.923 405.051ZM372.428 527.888H298.457V530H372.428V527.888ZM299.21 528.198L210.444 440.217L208.938 441.71L297.704 529.691L299.21 528.198Z" fill="url(#paint0_linear_3_22)"/>
<defs>
<linearGradient id="paint0_linear_3_22" x1="2.80786" y1="528.944" x2="368.014" y2="-1.98079" gradientUnits="userSpaceOnUse">
<stop stop-color="#7EADD8" stop-opacity="0.53"/>
<stop offset="1" stop-opacity="0"/>
</linearGradient>
</defs>
</svg>
